<svg width="42" height="50" viewBox="0 0 42 50" fill="none" xmlns="http://www.w3.org/2000/svg">
<path d="M39.7501 8.33333H33.2917C32.8082 5.9821 31.5289 3.86946 29.6694 2.35149C27.8098 0.833513 25.4838 0.00302263 23.0834 -7.62939e-06L18.9167 -7.62939e-06C16.5163 0.00302263 14.1903 0.833513 12.3308 2.35149C10.4713 3.86946 9.19195 5.9821 8.70842 8.33333H2.25008C1.69755 8.33333 1.16764 8.55282 0.776942 8.94352C0.386241 9.33422 0.166748 9.86412 0.166748 10.4167C0.166748 10.9692 0.386241 11.4991 0.776942 11.8898C1.16764 12.2805 1.69755 12.5 2.25008 12.5H4.33342V39.5833C4.33672 42.345 5.43525 44.9926 7.38804 46.9454C9.34083 48.8982 11.9884 49.9967 14.7501 50H27.2501C30.0117 49.9967 32.6593 48.8982 34.6121 46.9454C36.5649 44.9926 37.6634 42.345 37.6668 39.5833V12.5H39.7501C40.3026 12.5 40.8325 12.2805 41.2232 11.8898C41.6139 11.4991 41.8334 10.9692 41.8334 10.4167C41.8334 9.86412 41.6139 9.33422 41.2232 8.94352C40.8325 8.55282 40.3026 8.33333 39.7501 8.33333ZM18.9167 4.16666H23.0834C24.3757 4.16824 25.6358 4.56953 26.6909 5.3155C27.7461 6.06147 28.5447 7.1156 28.9772 8.33333H13.023C13.4555 7.1156 14.254 6.06147 15.3092 5.3155C16.3644 4.56953 17.6245 4.16824 18.9167 4.16666ZM33.5001 39.5833C33.5001 41.2409 32.8416 42.8306 31.6695 44.0027C30.4974 45.1748 28.9077 45.8333 27.2501 45.8333H14.7501C13.0925 45.8333 11.5028 45.1748 10.3307 44.0027C9.15856 42.8306 8.50008 41.2409 8.50008 39.5833V12.5H33.5001V39.5833Z" fill="#E22C2C"/>
<path d="M16.8333 37.5C17.3859 37.5 17.9158 37.2805 18.3065 36.8898C18.6972 36.4991 18.9167 35.9692 18.9167 35.4167V22.9167C18.9167 22.3641 18.6972 21.8342 18.3065 21.4435C17.9158 21.0528 17.3859 20.8333 16.8333 20.8333C16.2808 20.8333 15.7509 21.0528 15.3602 21.4435C14.9695 21.8342 14.75 22.3641 14.75 22.9167V35.4167C14.75 35.9692 14.9695 36.4991 15.3602 36.8898C15.7509 37.2805 16.2808 37.5 16.8333 37.5Z" fill="#E22C2C"/>
<path d="M25.1666 37.5C25.7191 37.5 26.249 37.2805 26.6397 36.8898C27.0304 36.4991 27.2499 35.9692 27.2499 35.4167V22.9167C27.2499 22.3641 27.0304 21.8342 26.6397 21.4435C26.249 21.0528 25.7191 20.8333 25.1666 20.8333C24.6141 20.8333 24.0841 21.0528 23.6934 21.4435C23.3027 21.8342 23.0833 22.3641 23.0833 22.9167V35.4167C23.0833 35.9692 23.3027 36.4991 23.6934 36.8898C24.0841 37.2805 24.6141 37.5 25.1666 37.5Z" fill="#E22C2C"/>
</svg>
